<?xml version="1.0" encoding="utf-8"?>
<svg xmlns="http://www.w3.org/2000/svg"
	xmlns:xlink="http://www.w3.org/1999/xlink"
	width="34px" height="50px" viewBox="0 0 34 50">
<path fillRule="evenodd" d="M 33.66 21.27C 33.66 21.23 33.66 21.2 33.66 21.16 33.66 21.16 33.66 21.14 33.66 21.14 33.66 21.14 33.66 21.12 33.66 21.12 33.66 21.12 33.63 20.54 33.63 20.54 33.63 20.54 33.4 15.79 33.4 15.79 33.32 14.58 32.42 13.68 31.21 13.6 31.21 13.6 26.46 13.37 26.46 13.37 26.46 13.37 25.87 13.34 25.87 13.34 25.81 13.34 25.76 13.34 25.73 13.34 25.61 13.34 25.48 13.35 25.36 13.35 25.39 13.01 25.41 12.68 25.41 12.33 25.41 10.06 24.7 7.96 23.5 6.31 23.5 6.31 23.5 6.31 23.5 6.31 23.22 5.92 22.91 5.56 22.58 5.23 22.56 5.21 22.53 5.18 22.49 5.14 22.49 5.14 22.05 4.74 22.05 4.74 22.05 4.74 18.52 1.54 18.52 1.54 17.61 0.75 16.34 0.75 15.42 1.54 15.42 1.54 11.9 4.74 11.9 4.74 11.9 4.74 11.47 5.13 11.47 5.13 11.47 5.13 11.46 5.14 11.46 5.14 11.46 5.14 11.44 5.16 11.44 5.16 11.42 5.18 11.39 5.2 11.37 5.23 11.04 5.56 10.72 5.92 10.44 6.31 9.24 7.96 8.53 10.06 8.53 12.33 8.53 12.68 8.55 13.01 8.59 13.35 8.46 13.35 8.34 13.34 8.21 13.34 8.18 13.34 8.14 13.34 8.08 13.34 8.08 13.34 7.49 13.37 7.49 13.37 7.49 13.37 2.73 13.6 2.73 13.6 1.53 13.68 0.63 14.58 0.54 15.79 0.54 15.79 0.31 20.54 0.31 20.54 0.31 20.54 0.28 21.12 0.28 21.12 0.28 21.12 0.28 21.14 0.28 21.14 0.28 21.14 0.28 21.16 0.28 21.16 0.28 21.2 0.28 21.23 0.28 21.27 0.28 21.73 0.32 22.21 0.39 22.69 0.59 23.94 1.05 25.19 1.75 26.33 1.07 26.71 0.6 27.39 0.54 28.24 0.54 28.24 0.31 32.99 0.31 32.99 0.31 32.99 0.28 33.57 0.28 33.57 0.28 33.57 0.28 33.58 0.28 33.58 0.28 33.58 0.28 33.61 0.28 33.61 0.28 33.64 0.28 33.68 0.28 33.71 0.28 34.18 0.32 34.66 0.39 35.13 0.71 37.15 1.69 39.13 3.3 40.74 4.9 42.34 6.89 43.33 8.91 43.64 9.38 43.72 9.86 43.75 10.32 43.75 10.32 43.75 10.38 43.76 10.38 43.76 10.38 43.76 11.06 43.72 11.06 43.72 11.06 43.72 15.45 43.51 15.45 43.51 15.45 43.51 15.45 47.75 15.45 47.75 15.45 48.59 16.13 49.27 16.97 49.27 17.81 49.27 18.5 48.59 18.5 47.75 18.5 47.75 18.5 43.51 18.5 43.51 18.5 43.51 22.89 43.72 22.89 43.72 22.89 43.72 23.57 43.76 23.57 43.76 23.57 43.76 23.62 43.75 23.62 43.75 24.09 43.75 24.56 43.72 25.04 43.64 27.05 43.33 29.04 42.34 30.64 40.74 32.25 39.13 33.23 37.15 33.55 35.13 33.63 34.66 33.66 34.18 33.66 33.71 33.66 33.68 33.66 33.64 33.66 33.61 33.66 33.61 33.66 33.58 33.66 33.58 33.66 33.58 33.66 33.57 33.66 33.57 33.66 33.57 33.63 32.99 33.63 32.99 33.63 32.99 33.4 28.24 33.4 28.24 33.34 27.39 32.88 26.71 32.19 26.33 32.9 25.19 33.35 23.94 33.55 22.69 33.63 22.21 33.66 21.73 33.66 21.27ZM 12.5 7.81C 12.7 7.52 12.92 7.27 13.16 7.03 13.17 7.02 13.18 7.01 13.19 7 13.19 7 13.61 6.62 13.61 6.62 13.61 6.62 16.97 3.57 16.97 3.57 16.97 3.57 20.34 6.62 20.34 6.62 20.34 6.62 20.77 7.01 20.77 7.01 20.75 7 20.76 7.01 20.79 7.03 21.02 7.27 21.24 7.53 21.45 7.81 22.33 9.01 22.87 10.59 22.87 12.33 22.87 12.85 22.82 13.36 22.72 13.84 21.28 14.33 19.89 15.17 18.71 16.35 18.01 17.06 17.43 17.83 16.97 18.65 16.51 17.83 15.94 17.06 15.23 16.35 14.05 15.17 12.67 14.33 11.22 13.84 11.13 13.36 11.07 12.85 11.07 12.33 11.07 10.59 11.62 9.01 12.5 7.81ZM 2.82 21.22C 2.82 21.22 2.85 20.66 2.85 20.66 2.85 20.66 3.07 16.13 3.07 16.13 3.07 16.13 7.61 15.9 7.61 15.9 7.61 15.9 8.18 15.88 8.18 15.88 8.17 15.88 8.18 15.88 8.21 15.88 8.53 15.88 8.85 15.9 9.18 15.95 9.2 15.95 9.21 15.95 9.23 15.96 10.7 16.19 12.21 16.92 13.44 18.15 14.44 19.16 15.11 20.34 15.45 21.54 15.45 21.54 15.45 29.03 15.45 29.03 15.38 28.95 15.31 28.88 15.23 28.8 15.14 28.71 15.05 28.63 14.95 28.54 13.4 27.09 11.53 26.2 9.63 25.9 9.63 25.9 9.63 25.89 9.63 25.89 9.15 25.82 8.68 25.78 8.21 25.79 8.18 25.79 8.14 25.78 8.08 25.79 8.08 25.79 7.49 25.82 7.49 25.82 7.49 25.82 4.61 25.95 4.61 25.95 3.67 24.84 3.1 23.55 2.9 22.29 2.85 21.94 2.82 21.61 2.82 21.27 2.82 21.27 2.82 21.22 2.82 21.22ZM 10.93 41.19C 10.93 41.19 10.38 41.21 10.38 41.21 10.38 41.21 10.35 41.21 10.35 41.21 10.33 41.21 10.33 41.21 10.33 41.21 9.99 41.21 9.64 41.19 9.3 41.14 7.83 40.9 6.33 40.17 5.1 38.94 3.87 37.71 3.13 36.21 2.9 34.74 2.85 34.39 2.82 34.05 2.82 33.71 2.82 33.71 2.82 33.67 2.82 33.67 2.82 33.67 2.85 33.11 2.85 33.11 2.85 33.11 3.07 28.57 3.07 28.57 3.07 28.57 3.58 28.55 3.58 28.55 3.58 28.55 7.61 28.35 7.61 28.35 7.61 28.35 7.96 28.33 7.96 28.33 7.96 28.33 8.18 28.32 8.18 28.32 8.17 28.33 8.18 28.32 8.21 28.32 8.55 28.33 8.89 28.35 9.23 28.4 9.68 28.47 10.12 28.6 10.57 28.76 11.59 29.13 12.58 29.74 13.44 30.6 13.61 30.77 13.77 30.95 13.93 31.14 14.66 32.01 15.17 32.99 15.45 33.98 15.45 33.98 15.45 40.97 15.45 40.97 15.45 40.97 10.93 41.19 10.93 41.19ZM 31.12 33.71C 31.12 34.05 31.1 34.39 31.04 34.74 30.81 36.21 30.08 37.71 28.85 38.94 27.62 40.17 26.12 40.9 24.64 41.14 24.3 41.19 23.96 41.21 23.62 41.21 23.62 41.21 23.61 41.21 23.6 41.21 23.6 41.21 23.56 41.21 23.56 41.21 23.56 41.21 23.01 41.19 23.01 41.19 23.01 41.19 18.5 40.97 18.5 40.97 18.5 40.97 18.5 33.98 18.5 33.98 18.78 32.99 19.28 32.01 20.02 31.14 20.17 30.95 20.33 30.77 20.51 30.6 21.37 29.74 22.36 29.13 23.38 28.76 23.82 28.6 24.27 28.47 24.71 28.4 25.05 28.35 25.4 28.33 25.73 28.32 25.76 28.32 25.78 28.33 25.76 28.32 25.76 28.32 25.98 28.33 25.98 28.33 25.98 28.33 26.33 28.35 26.33 28.35 26.33 28.35 30.37 28.55 30.37 28.55 30.37 28.55 30.87 28.57 30.87 28.57 30.87 28.57 31.1 33.11 31.1 33.11 31.1 33.11 31.12 33.67 31.12 33.67 31.12 33.67 31.12 33.71 31.12 33.71ZM 31.12 21.27C 31.12 21.61 31.1 21.94 31.04 22.29 30.84 23.55 30.27 24.84 29.34 25.95 29.34 25.95 26.46 25.82 26.46 25.82 26.46 25.82 25.87 25.79 25.87 25.79 25.81 25.78 25.76 25.79 25.73 25.79 25.26 25.78 24.79 25.82 24.32 25.89 24.32 25.89 24.32 25.9 24.32 25.9 22.41 26.2 20.54 27.09 18.99 28.54 18.9 28.63 18.8 28.71 18.71 28.8 18.64 28.88 18.57 28.95 18.5 29.03 18.5 29.03 18.5 21.54 18.5 21.54 18.83 20.34 19.5 19.16 20.51 18.15 21.74 16.92 23.24 16.19 24.71 15.96 24.73 15.95 24.75 15.95 24.77 15.95 25.09 15.9 25.42 15.88 25.73 15.88 25.76 15.88 25.78 15.88 25.76 15.88 25.76 15.88 26.33 15.9 26.33 15.9 26.33 15.9 30.87 16.13 30.87 16.13 30.87 16.13 31.1 20.66 31.1 20.66 31.1 20.66 31.12 21.22 31.12 21.22 31.12 21.22 31.12 21.27 31.12 21.27Z" fill="rgb(255,255,255)"/></svg>